<svg stroke="currentColor" fill="none" stroke-width="2" viewBox="0 0 24 24" stroke-linecap="round" stroke-linejoin="round" className="text-3xl dark-mode-light dark:hidden" height="1em" width="1em" xmlns="http://www.w3.org/2000/svg">
                  <path d="M21 12.79A9 9 0 1 1 11.21 3 7 7 0 0 0 21 12.79z">
                  </path>
                </svg>
                <svg stroke="currentColor" fill="none" stroke-width="2" viewBox="0 0 24 24" stroke-linecap="round" stroke-linejoin="round" className="text-2xl dark-mode-dark hidden fill-jacarta-700 group-hover:fill-white group-focus:fill-white dark:block dark:fill-white " height="1em" width="1em" xmlns="http://www.w3.org/2000/svg">
                  <circle cx="12" cy="12" r="5"></circle>
                  <line x1="12" y1="1" x2="12" y2="3"></line><line x1="12" y1="21" x2="12" y2="23"></line><line x1="4.22" y1="4.22" x2="5.64" y2="5.64"></line><line x1="18.36" y1="18.36" x2="19.78" y2="19.78"></line><line x1="1" y1="12" x2="3" y2="12"></line><line x1="21" y1="12" x2="23" y2="12"></line><line x1="4.22" y1="19.78" x2="5.64" y2="18.36"></line><line x1="18.36" y1="5.64" x2="19.78" y2="4.22"></line></svg></span><span className="bg-white w-[40px] hover:text-white flex items-center h-[40px] rounded-full lg:hidden justify-center items-center text-black hover:bg-[#ef4060] transition-all duration-300 ease-in-out cursor-pointer ml-2 ">
                <svg stroke="currentColor" fill="none" stroke-width="2" viewBox="0 0 24 24" stroke-linecap="round" stroke-linejoin="round" className="text-3xl dark-mode-light dark:hidden" height="1em" width="1em" xmlns="http://www.w3.org/2000/svg"><path d="M21 12.79A9 9 0 1 1 11.21 3 7 7 0 0 0 21 12.79z"></path></svg><svg stroke="currentColor" fill="none" stroke-width="2" viewBox="0 0 24 24" stroke-linecap="round" stroke-linejoin="round" className="text-2xl dark-mode-dark hidden fill-jacarta-700 group-hover:fill-white group-focus:fill-white dark:block dark:fill-white " height="1em" width="1em" xmlns="http://www.w3.org/2000/svg"><circle cx="12" cy="12" r="5"></circle><line x1="12" y1="1" x2="12" y2="3"></line><line x1="12" y1="21" x2="12" y2="23"></line><line x1="4.22" y1="4.22" x2="5.64" y2="5.64"></line><line x1="18.36" y1="18.36" x2="19.78" y2="19.78"></line><line x1="1" y1="12" x2="3" y2="12"></line><line x1="21" y1="12" x2="23" y2="12"></line><line x1="4.22" y1="19.78" x2="5.64" y2="18.36"></line><line x1="18.36" y1="5.64" x2="19.78" y2="4.22"></line></svg></span><span className="lg:opacity-0 lg:invisible visible opacity-100 bg-[#ef4060] w-[40px] h-[40px] rounded-full flex justify-center cursor-pointer items-center text-white dark:text-white text-3xl ml-3 "><svg stroke="currentColor" fill="currentColor" stroke-width="0" viewBox="0 0 1024 1024" height="1em" width="1em" xmlns="http://www.w3.org/2000/svg"><path d="M904 160H120c-4.4 0-8 3.6-8 8v64c0 4.4 3.6 8 8 8h784c4.4 0 8-3.6 8-8v-64c0-4.4-3.6-8-8-8zm0 624H120c-4.4 0-8 3.6-8 8v64c0 4.4 3.6 8 8 8h784c4.4 0 8-3.6 8-8v-64c0-4.4-3.6-8-8-8zm0-312H120c-4.4 0-8 3.6-8 8v64c0 4.4 3.6 8 8 8h784c4.4 0 8-3.6 8-8v-64c0-4.4-3.6-8-8-8z"></path></svg>